<svg width="2200" height="2200" viewBox="0 0 2200 2200" fill="none" xmlns="http://www.w3.org/2000/svg">
<g clip-path="url(#clip0_2053_523)">
<path d="M2200 0H0V2200H2200V0Z" fill="white"/>
<path d="M776.765 841.972C862.968 812.333 977.762 796.011 1100 796.011C1222.24 796.011 1337.03 812.333 1423.23 841.972C1505.23 870.162 1552.25 907.927 1552.25 945.584C1552.25 983.241 1505.23 1021.01 1423.23 1049.2C1337.03 1078.83 1222.24 1095.16 1100 1095.16C977.762 1095.16 862.968 1078.84 776.765 1049.2C694.774 1021.01 647.75 983.242 647.75 945.584C647.75 907.928 694.774 870.162 776.765 841.972Z" fill="#E8F1F1"/>
<path d="M1552.25 1804.43C1552.25 1842.08 1505.23 1879.85 1423.23 1908.04C1337.03 1937.68 1222.24 1954 1100 1954C977.762 1954 862.968 1937.68 776.765 1908.04C694.774 1879.85 647.75 1842.08 647.75 1804.43V1660.04C669.828 1687.99 711.708 1713.23 770.898 1733.58C858.943 1763.85 975.819 1780.52 1100 1780.52C1224.18 1780.52 1341.06 1763.85 1429.1 1733.58C1488.29 1713.23 1530.17 1687.99 1552.25 1660.04V1804.43Z" fill="#1E7376"/>
<path d="M1552.25 1612.9C1552.25 1650.56 1505.23 1688.32 1423.23 1716.51C1337.03 1746.15 1222.24 1762.48 1100 1762.48C977.765 1762.48 862.972 1746.15 776.766 1716.51C694.774 1688.32 647.75 1650.56 647.75 1612.9C647.75 1587.85 668.464 1566.85 687.732 1552.74C709.661 1566.93 737.517 1579.97 770.897 1591.45C858.94 1621.72 975.817 1638.39 1100 1638.39C1224.18 1638.39 1341.06 1621.72 1429.1 1591.45C1462.48 1579.97 1490.34 1566.93 1512.27 1552.74C1531.54 1566.85 1552.25 1587.85 1552.25 1612.9Z" fill="#E8F1F1"/>
<path d="M1552.25 1470.77C1552.25 1508.43 1505.23 1546.19 1423.23 1574.38C1337.03 1604.02 1222.24 1620.34 1100 1620.34C977.762 1620.34 862.968 1604.02 776.765 1574.38C694.774 1546.19 647.75 1508.43 647.75 1470.77V1326.39C669.828 1354.33 711.708 1379.57 770.898 1399.92C858.94 1430.19 975.818 1446.86 1100 1446.86C1224.18 1446.86 1341.06 1430.19 1429.1 1399.92C1488.29 1379.57 1530.17 1354.33 1552.25 1326.39V1470.77Z" fill="#1E7376"/>
<path d="M1552.25 1279.24C1552.25 1316.9 1505.23 1354.67 1423.23 1382.86C1337.03 1412.5 1222.24 1428.82 1100 1428.82C977.763 1428.82 862.969 1412.5 776.766 1382.86C694.774 1354.67 647.75 1316.9 647.75 1279.24C647.75 1254.19 668.463 1233.2 687.73 1219.08C709.659 1233.28 737.516 1246.31 770.897 1257.79C858.94 1288.06 975.817 1304.73 1100 1304.73C1224.18 1304.73 1341.06 1288.06 1429.1 1257.79C1462.48 1246.31 1490.34 1233.28 1512.27 1219.08C1531.54 1233.2 1552.25 1254.19 1552.25 1279.24Z" fill="#E8F1F1"/>
<path d="M1423.23 1240.72C1337.03 1270.36 1222.24 1286.69 1100 1286.69C977.762 1286.69 862.968 1270.36 776.765 1240.72C694.774 1212.53 647.75 1174.77 647.75 1137.11V992.729C669.828 1020.68 711.708 1045.91 770.897 1066.26C858.94 1096.53 975.817 1113.2 1100 1113.2C1224.18 1113.2 1341.06 1096.53 1429.1 1066.26C1488.29 1045.91 1530.17 1020.68 1552.25 992.729V1137.11C1552.25 1174.77 1505.23 1212.53 1423.23 1240.72Z" fill="#1E7376"/>
<path d="M976.966 768.532H923.41V822.088H976.966V768.532Z" fill="#1E7376"/>
<path d="M1088.42 654.183H1005.92V736.688H1088.42V654.183Z" fill="#E8F1F1"/>
<path d="M932.095 581.81H830.773V683.132H932.095V581.81Z" fill="#1E7376"/>
<path d="M1149.21 473.251H1026.18V596.285H1149.21V473.251Z" fill="#1E7376"/>
<path d="M966.834 327.058H813.403V480.489H966.834V327.058Z" fill="#E8F1F1"/>
<path d="M1267.91 246H1094.21V419.695H1267.91V246Z" fill="#E8F1F1"/>
<path d="M1506.74 319.82H1340.28V486.278H1506.74V319.82Z" fill="#1E7376"/>
<path d="M1291.06 525.359H1210.01V606.417H1291.06V525.359Z" fill="#E8F1F1"/>
</g>
<defs>
<clipPath id="clip0_2053_523">
<rect width="2200" height="2200" fill="white"/>
</clipPath>
</defs>
</svg>
